<svg xmlns="http://www.w3.org/2000/svg" viewBox="0 0 32 32">
  <defs>
    <linearGradient id="grad" x1="0%" y1="0%" x2="100%" y2="100%">
      <stop offset="0%" style="stop-color:#f43f5e"/>
      <stop offset="100%" style="stop-color:#ec4899"/>
    </linearGradient>
  </defs>
  <circle cx="16" cy="16" r="15" fill="url(#grad)"/>
  <path d="M16 8c-2.5 0-4.5 1.5-5.5 3.5C9.5 9.5 7.5 8 5 8c-3.5 0-6 2.5-6 6 0 7 11 12 17 16 6-4 17-9 17-16 0-3.5-2.5-6-6-6-2.5 0-4.5 1.5-5.5 3.5C20.5 9.5 18.5 8 16 8z" transform="translate(5, 6) scale(0.7)" fill="white"/>
</svg>
